<?xml version="1.0" encoding="utf-8"?>
<!-- Generator: Adobe Illustrator 25.1.0, SVG Export Plug-In . SVG Version: 6.00 Build 0)  -->
<svg version="1.1" id="Layer_1" xmlns="http://www.w3.org/2000/svg" xmlns:xlink="http://www.w3.org/1999/xlink" x="0px" y="0px"
	 viewBox="0 0 1861.3 708.8" style="enable-background:new 0 0 1861.3 708.8;" xml:space="preserve">
<image style="overflow:visible;" width="472" height="473" xlink:href="https://raw.githubusercontent.com/t3rn/t3rn/development/specification/assets/logo_svg/7A65E0936C21F393.png"  transform="matrix(1 0 0 1 440.645 236.3933)">
</image>
<image style="overflow:visible;" width="453" height="155" xlink:href="https://raw.githubusercontent.com/t3rn/t3rn/development/specification/assets/logo_svg/7A65E0936C21F391.png"  transform="matrix(1 0 0 1 450.645 4.3933)">
</image>
<image style="overflow:visible;" width="305" height="304" xlink:href="https://raw.githubusercontent.com/t3rn/t3rn/development/specification/assets/logo_svg/7A65E0936C21F397.png"  transform="matrix(1 0 0 1 598.645 4.3933)">
</image>
<path d="M1365.2,156.3c47.2,0,94.1,0,141.4,0c0,25.8,0,51.4,0,78.3c1.7-2.1,2.7-3,3.4-4.2c12.6-19.2,28-35.7,46.7-49
	c17.4-12.3,36.3-21.8,56.9-27.9c35.7-10.6,71.7-10.4,108-3.7c24.5,4.5,47.2,13.6,67.3,28.4c15,11,27.4,24.6,37.6,40.3
	c16.6,25.5,26,53.6,30.8,83.5c2.9,18.1,3.9,36.3,3.9,54.6c0.1,112.6,0.1,225.3,0.1,337.9c0,2,0,4,0,6.4c-47.5,0-94.5,0-142.1,0
	c0-2.4,0-4.8,0-7.1c0-106.5,0-213.1,0-319.6c0-12.7-0.3-25.5-2.6-38.1c-3.6-20.2-10.6-38.8-25-53.9c-9.8-10.3-21.9-16.9-35.8-19.8
	c-18.8-3.9-37.9-3.9-56.6,0.4c-19.5,4.5-36.2,14.6-50.2,28.9c-19.1,19.4-31.8,42.4-38.2,68.9c-3.3,13.7-3.9,27.7-3.9,41.8
	c0.1,96.9,0,193.9,0,290.8c0,2.4,0,4.8,0,7.6c-47.3,0-94.2,0-141.6,0C1365.2,519.6,1365.2,338.2,1365.2,156.3z"/>
<path d="M982.2,156.3c47.2,0,94.1,0,141.3,0c0,35.1,0,70,0,104.8c0.4,0.1,0.8,0.2,1.1,0.3c0.6-1.5,1.2-3,1.7-4.6
	c6.7-19,16-36.5,28.9-52c16-19.2,35.7-33.5,59.1-42.6c20.4-7.9,41.6-11.3,63.4-11.7c10.3-0.2,20.6,0,31.2,0c0,43.7,0,87,0,131
	c-2.2,0-4.2,0-6.1,0c-19.6,0.2-39.2,0.2-58.7,0.7c-22,0.6-43.2,5.4-63,15.4c-18.5,9.4-32.4,23.5-41.7,42.2
	c-10.1,20.4-14.1,42.2-15.3,64.7c-0.3,6.3-0.4,12.5-0.4,18.8c0,90.1,0,180.2,0,270.3c0,2.4,0,4.7,0,7.3c-47.4,0-94.3,0-141.5,0
	C982.2,519.5,982.2,338.2,982.2,156.3z"/>
<path d="M376.6,270.5c-40.5,0-80.7,0-121.5,0c-0.1,2.4-0.3,4.3-0.3,6.3c0,80.7-0.1,161.4,0.1,242.1c0,10.5,0.8,21.1,2.6,31.4
	c2.9,17.5,10.4,24.9,26.9,28c10.8,2,22,2.8,33,3c23.1,0.4,46.2,0.1,69.3,0.1c2,0,4,0,6.3,0c0,40.1,0,79.7,0,120c-2,0-3.8,0-5.6,0
	c-43.6,0-87.2,0.1-130.8,0c-22.6-0.1-45-2.3-66.5-10.2c-27.1-9.9-47.8-27.3-61-53.3c-10.5-20.7-15.6-42.7-15.8-65.6
	c-0.6-64.2-0.6-128.5-0.8-192.8c-0.1-34,0-67.9,0-101.9c0-2.2,0-4.3,0-6.9c-37.6,0-74.5,0-111.9,0c0-38.2,0-75.9,0-114.3
	c36.9,0,74,0,111.7,0c0-59.2,0-92.3,0-151.2c47.7,0,94.7,0,142.2,0c0,58.7,0,91.7,0,150.7c40.8,0,81.2,0,122,0
	C376.6,194.1,376.6,231.8,376.6,270.5z"/>
</svg>
